<svg width="30" height="30" viewBox="0 0 30 30" fill="none" xmlns="http://www.w3.org/2000/svg">
<g clip-path="url(#clip0_21_1135)">
<path d="M30 15C30 6.71575 23.2842 1.90735e-05 15 1.90735e-05C6.71574 1.90735e-05 0 6.71575 0 15C0 22.0347 4.8429 27.9373 11.3764 29.5583V19.5838H8.28323V15H11.3764V13.0249C11.3764 7.91935 13.6868 5.55296 18.6992 5.55296C19.6495 5.55296 21.2892 5.73926 21.96 5.92562V10.0809C21.606 10.0436 20.9911 10.0249 20.2271 10.0249C17.7675 10.0249 16.8172 10.9566 16.8172 13.3789V15H21.7167L20.8751 19.5838H16.8172V29.8901C24.2444 28.9931 30 22.6691 30 15Z" fill="#0866FF"/>
<path d="M20.875 19.5838L21.7168 15H16.8172V13.3789C16.8172 10.9566 17.7675 10.0249 20.2271 10.0249C20.9911 10.0249 21.606 10.0435 21.96 10.0808V5.92562C21.2892 5.73926 19.6495 5.5529 18.6992 5.5529C13.6869 5.5529 11.3763 7.91936 11.3763 13.0249V15H8.2832V19.5838H11.3763V29.5583C12.5369 29.8462 13.7504 30 15 30C15.6152 30 16.2214 29.9621 16.8172 29.8901V19.5838H20.875Z" fill="white"/>
</g>
<defs>
<clipPath id="clip0_21_1135">
<rect width="30" height="30" fill="white"/>
</clipPath>
</defs>
</svg>
